<svg width="35" height="33" viewBox="0 0 35 33" fill="none" xmlns="http://www.w3.org/2000/svg">
<path d="M11.5401 32.1727C11.4093 32.1727 11.2809 32.1385 11.1674 32.0736C11.054 32.0086 10.9594 31.9151 10.8933 31.8024C8.08984 27.0263 0.619468 16.8616 0.544318 16.7594C0.437582 16.6143 0.386621 16.4357 0.40075 16.2561C0.414879 16.0766 0.493154 15.9081 0.621269 15.7815L2.91762 13.5123C3.04237 13.3891 3.20639 13.3134 3.38115 13.2985C3.55591 13.2836 3.73036 13.3305 3.87417 13.4309L11.3837 18.6746C16.3763 12.2609 21.0159 7.83462 24.0654 5.22657C27.4836 2.30285 29.6568 0.989073 29.7476 0.934323C29.8642 0.864348 29.9976 0.827379 30.1335 0.827373H33.8484C34.0005 0.827348 34.149 0.87354 34.2742 0.959824C34.3994 1.04611 34.4954 1.16841 34.5495 1.31051C34.6036 1.45261 34.6132 1.6078 34.5771 1.7555C34.541 1.90321 34.4608 2.03644 34.3473 2.13755C28.8399 7.04255 23.1141 14.836 19.2807 20.51C15.1134 26.6775 12.2205 31.7434 12.1918 31.7939C12.1267 31.9082 12.0327 32.0034 11.9191 32.0699C11.8056 32.1363 11.6766 32.1718 11.545 32.1726L11.5401 32.1727Z" fill="#463998"/>
</svg>
